            <svg
              width="12"
              height="12"
              viewBox="0 0 12 12"
              fill="none"
              xmlns="http://www.w3.org/2000/svg"

            >
              <circle cx="6" cy="6" r="6" fill="#828A9B" />
              <path
                d="M6.026 7.25476C6.42114 7.25476 6.63062 7.01672 6.6449 6.61206L6.71631 3.31763C6.72107 3.27002 6.72107 3.21289 6.72107 3.1748C6.72107 2.73682 6.45447 2.47498 6.03076 2.47498C5.60229 2.47498 5.33093 2.73682 5.33093 3.1748C5.33093 3.21289 5.33569 3.27002 5.33569 3.31763L5.41187 6.61206C5.42139 7.01672 5.63086 7.25476 6.026 7.25476ZM6.026 9.56848C6.45923 9.56848 6.802 9.23999 6.802 8.82104C6.802 8.4021 6.45923 8.07361 6.026 8.07361C5.59277 8.07361 5.25 8.4021 5.25 8.82104C5.25 9.23999 5.59277 9.56848 6.026 9.56848Z"
                fill="white"
              />
            </svg>