<svg
                  width="18"
                  height="18"
                  viewBox="0 0 18 18"
                  fill="none"
                  xmlns="http://www.w3.org/2000/svg"
                >
                  <path
                    d="M8.16602 3.16675C8.62625 3.16675 8.99935 3.53984 8.99935 4.00008C8.99935 4.46032 8.62625 4.83341 8.16602 4.83341H3.16602C2.70578 4.83341 2.33268 5.20651 2.33268 5.66675V14.8334C2.33268 15.2937 2.70578 15.6667 3.16602 15.6667H12.3327C12.7929 15.6667 13.166 15.2937 13.166 14.8334V9.83342C13.166 9.37318 13.5391 9.00008 13.9993 9.00008C14.4596 9.00008 14.8327 9.37318 14.8327 9.83342V14.8334C14.8327 16.2141 13.7134 17.3334 12.3327 17.3334H3.16602C1.7853 17.3334 0.666016 16.2141 0.666016 14.8334V5.66675C0.666016 4.28604 1.7853 3.16675 3.16602 3.16675H8.16602ZM16.752 0.7058L16.7697 0.711567C16.8024 0.72278 16.8342 0.735971 16.8649 0.750998C16.8789 0.757743 16.8937 0.765525 16.9084 0.773785C16.9287 0.785356 16.9476 0.797125 16.9661 0.809613C17.0091 0.838682 17.0503 0.872496 17.0886 0.910826L17.0138 0.844441C17.0336 0.859983 17.0526 0.876401 17.0709 0.893636L17.0886 0.910826C17.0961 0.918366 17.1035 0.926016 17.1107 0.933768C17.1237 0.94783 17.1364 0.962436 17.1485 0.977472C17.1639 0.996526 17.1782 1.01593 17.1915 1.03578C17.2018 1.0511 17.2115 1.06677 17.2208 1.08277C17.2316 1.10125 17.2416 1.12016 17.2508 1.13935C17.261 1.16058 17.2702 1.18195 17.2785 1.20377C17.2848 1.22045 17.2904 1.23694 17.2956 1.25356C17.3196 1.33107 17.3327 1.41405 17.3327 1.50008V6.50008C17.3327 6.96032 16.9596 7.33341 16.4993 7.33341C16.0391 7.33341 15.666 6.96032 15.666 6.50008V3.51175L7.92194 11.256C7.62904 11.5489 7.17237 11.5782 6.84672 11.3439L6.74343 11.256C6.41799 10.9306 6.41799 10.4029 6.74343 10.0775L14.4873 2.333L11.4993 2.33341C11.081 2.33341 10.7346 2.02507 10.6751 1.62323L10.666 1.50008C10.666 1.03984 11.0391 0.666748 11.4993 0.666748H16.4993C16.5591 0.666748 16.6188 0.673127 16.6774 0.685884C16.6983 0.690361 16.7194 0.695805 16.74 0.702031L16.752 0.7058Z"
                    fill="white"
                  />
                </svg>