            <svg
              width="24"
              height="24"
              viewBox="0 0 24 24"
              fill="none"
              xmlns="http://www.w3.org/2000/svg"
            >
              <path
                fillRule="evenodd"
                clipRule="evenodd"
                d="M11.167 4.49936L2.82537 19.5143C2.55715 19.9971 2.7311 20.6059 3.21388 20.8741C3.36244 20.9566 3.52958 20.9999 3.69952 20.9999H21.217C21.7692 20.9999 22.217 20.5522 22.217 19.9999C22.217 19.8159 22.1662 19.6355 22.0702 19.4785L12.8944 4.46356C12.6064 3.9923 11.991 3.84374 11.5197 4.13172C11.3724 4.22176 11.2509 4.34842 11.167 4.49936Z"
                fill="#FFAD00"
              />
              <path
                d="M13 10C13 9.44772 12.5523 9 12 9C11.4477 9 11 9.44772 11 10V15C11 15.5523 11.4477 16 12 16C12.5523 16 13 15.5523 13 15V10Z"
                fill="white"
              />
              <path
                d="M13 18C13 17.4477 12.5523 17 12 17C11.4477 17 11 17.4477 11 18C11 18.5523 11.4477 19 12 19C12.5523 19 13 18.5523 13 18Z"
                fill="white"
              />
            </svg>